<?xml version="1.0" encoding="UTF-8" standalone="no"?>
<!DOCTYPE svg PUBLIC "-//W3C//DTD SVG 20010904//EN"
              "http://www.w3.org/TR/2001/REC-SVG-20010904/DTD/svg10.dtd">

<svg xmlns="http://www.w3.org/2000/svg"
     width="193.386mm" height="19.3122mm"
     viewBox="0 0 731 73">
  <path id="Auswahl"
        fill="none" stroke="black" stroke-width="1"
        d="M 704.00,33.00
           C 697.84,34.75 686.77,34.00 680.00,34.06
             680.00,34.06 636.00,34.06 636.00,34.06
             636.00,34.06 492.00,34.06 492.00,34.06
             492.00,34.06 21.00,34.06 21.00,34.06
             19.57,34.00 16.41,33.94 15.15,34.06
             11.94,35.26 11.88,38.20 14.32,39.40
             15.78,40.13 19.30,40.00 21.00,40.00
             21.00,40.00 704.00,40.00 704.00,40.00
             704.00,40.00 697.00,44.20 697.00,44.20
             695.06,45.38 691.15,47.60 690.01,49.51
             688.81,51.53 689.45,54.27 692.15,54.27
             694.22,54.27 697.25,52.13 699.00,51.05
             702.48,48.89 715.48,41.74 716.92,38.80
             718.39,35.81 716.14,33.84 713.94,32.23
             713.94,32.23 698.00,22.32 698.00,22.32
             696.19,21.22 692.76,18.78 690.60,20.12
             688.22,21.60 689.80,24.55 691.29,25.96
             694.14,28.64 700.25,31.82 704.00,33.00 Z" />
</svg>
