<?xml version="1.0" encoding="UTF-8" standalone="no"?>
<!DOCTYPE svg PUBLIC "-//W3C//DTD SVG 20010904//EN"
              "http://www.w3.org/TR/2001/REC-SVG-20010904/DTD/svg10.dtd">

<svg xmlns="http://www.w3.org/2000/svg"
     width="73.8095mm" height="19.3122mm"
     viewBox="0 0 279 73">
  <path id="Auswahl"
        fill="none" stroke="black" stroke-width="1"
        d="M 250.00,32.00
           C 243.84,33.75 231.86,33.00 225.00,33.08
             225.00,33.08 179.00,33.08 179.00,33.08
             179.00,33.08 28.00,33.08 28.00,33.08
             26.57,33.00 23.41,32.94 22.15,33.08
             18.94,34.26 18.88,37.20 21.32,38.40
             22.78,39.13 26.30,39.00 28.00,39.00
             28.00,39.00 250.00,39.00 250.00,39.00
             250.00,39.00 243.00,43.60 243.00,43.60
             240.97,44.84 237.10,46.93 236.17,49.16
             235.23,51.42 236.69,53.17 239.06,53.04
             241.98,52.88 256.71,43.35 259.98,41.19
             262.28,39.67 265.60,37.56 263.92,34.31
             262.95,32.43 259.78,30.70 258.00,29.58
             258.00,29.58 242.00,19.92 242.00,19.92
             236.92,17.58 235.11,20.30 236.17,22.84
             237.49,26.01 246.74,30.55 250.00,32.00 Z" />
</svg>
