<?xml version="1.0" encoding="UTF-8" standalone="no"?>
<!DOCTYPE svg PUBLIC "-//W3C//DTD SVG 20010904//EN"
              "http://www.w3.org/TR/2001/REC-SVG-20010904/DTD/svg10.dtd">

<svg xmlns="http://www.w3.org/2000/svg"
     width="21.1667mm" height="27.6014mm"
     viewBox="0 0 250 326">
  <path id="Auswahl"
        fill="none" stroke="black" stroke-width="1"
        d="M 0.00,0.00
           C 0.00,0.00 0.00,292.00 0.00,292.00
             0.00,292.00 46.00,292.00 46.00,292.00
             46.00,292.00 46.00,326.00 46.00,326.00
             46.00,326.00 204.00,326.00 204.00,326.00
             204.00,326.00 204.00,292.00 204.00,292.00
             204.00,292.00 250.00,292.00 250.00,292.00
             250.00,292.00 250.00,0.00 250.00,0.00
             250.00,0.00 0.00,0.00 0.00,0.00 Z
           M 234.00,16.00
           C 234.00,16.00 234.00,275.00 234.00,275.00
             234.00,275.00 187.00,275.00 187.00,275.00
             187.00,275.00 187.00,310.00 187.00,310.00
             187.00,310.00 63.00,310.00 63.00,310.00
             63.00,310.00 63.00,275.00 63.00,275.00
             63.00,275.00 16.00,275.00 16.00,275.00
             16.00,275.00 16.00,16.00 16.00,16.00
             16.00,16.00 234.00,16.00 234.00,16.00 Z
           M 45.00,172.00
           C 45.00,172.00 45.00,244.00 45.00,244.00
             45.00,244.00 98.00,244.00 98.00,244.00
             98.00,244.00 98.00,172.00 98.00,172.00
             98.00,172.00 45.00,172.00 45.00,172.00 Z
           M 152.00,172.00
           C 152.00,172.00 152.00,244.00 152.00,244.00
             152.00,244.00 205.00,244.00 205.00,244.00
             205.00,244.00 205.00,172.00 205.00,172.00
             205.00,172.00 152.00,172.00 152.00,172.00 Z" />
</svg>
